<?xml version="1.0" standalone="no"?>
<!DOCTYPE svg PUBLIC "-//W3C//DTD SVG 20010904//EN"
 "http://www.w3.org/TR/2001/REC-SVG-20010904/DTD/svg10.dtd">
<svg version="1.0" xmlns="http://www.w3.org/2000/svg"
 width="500.000000pt" height="500.000000pt" viewBox="0 0 500.000000 500.000000"
 preserveAspectRatio="xMidYMid meet">

<g transform="translate(0.000000,500.000000) scale(0.100000,-0.100000)"
fill="#000000" stroke="none">
<path d="M0 2500 l0 -2500 2500 0 2500 0 0 2500 0 2500 -2500 0 -2500 0 0
-2500z m2687 2125 c209 -49 379 -185 474 -380 75 -154 79 -193 79 -719 l0
-442 25 -51 c21 -41 64 -84 217 -219 214 -188 232 -213 232 -319 0 -62 -17
-109 -58 -154 -11 -13 -97 -81 -191 -151 -130 -97 -176 -137 -195 -171 l-25
-44 -5 -515 c-6 -514 -6 -515 -31 -595 -38 -124 -90 -208 -188 -305 -68 -68
-104 -94 -171 -127 -114 -57 -182 -73 -328 -80 l-122 -6 2 239 3 239 102 5
c93 5 105 8 144 35 24 17 57 50 74 74 l30 43 6 516 c6 566 6 564 70 701 45 98
113 186 195 253 l75 62 -89 85 c-98 94 -139 149 -183 247 -60 131 -61 146 -68
675 l-6 486 -30 49 c-19 30 -49 60 -79 79 -45 27 -59 30 -148 33 l-98 4 0 234
0 234 113 0 c63 0 139 -7 174 -15z m-971 -1086 c79 -30 154 -105 183 -182 100
-272 -173 -526 -435 -403 -112 53 -178 158 -179 287 0 68 4 84 35 145 38 75
102 132 175 158 61 22 155 20 221 -5z m-38 -1471 c241 -60 323 -358 148 -534
-125 -125 -325 -125 -449 -1 -124 124 -124 331 -1 451 83 81 193 112 302 84z"/>
</g>
</svg>
