<?xml version="1.0" standalone="no"?>
<!DOCTYPE svg PUBLIC "-//W3C//DTD SVG 20010904//EN"
 "http://www.w3.org/TR/2001/REC-SVG-20010904/DTD/svg10.dtd">
<svg version="1.0" xmlns="http://www.w3.org/2000/svg"
 width="200.000000pt" height="70.000000pt" viewBox="0 0 200.000000 70.000000"
 preserveAspectRatio="xMidYMid meet">

<g transform="translate(0.000000,70.000000) scale(0.100000,-0.100000)"
fill="#000000" stroke="none">
<path d="M68 664 c-15 -8 -32 -23 -38 -34 -6 -11 -10 -119 -10 -275 l0 -257
29 -29 29 -29 906 0 906 0 32 29 33 29 0 254 c0 228 -2 257 -18 281 -10 16
-29 32 -43 37 -15 6 -372 10 -912 10 -763 -1 -891 -3 -914 -16z m231 -90 c16
-21 21 -41 21 -89 0 -53 4 -65 25 -85 14 -13 25 -31 25 -40 0 -9 -11 -27 -25
-40 -21 -20 -25 -32 -25 -86 0 -34 -3 -70 -6 -79 -6 -16 -54 -45 -74 -45 -18
0 -11 45 10 58 17 10 20 23 20 80 0 45 5 75 16 90 14 20 14 24 0 44 -11 15
-16 45 -16 91 0 60 -2 70 -20 74 -13 3 -20 14 -20 29 0 34 42 32 69 -2z m453
-43 c67 -60 29 -161 -60 -161 -41 1 -63 13 -80 47 -26 48 -10 102 36 127 41
23 68 19 104 -13z m286 2 c5 -16 21 -58 35 -95 l26 -68 -24 0 c-16 0 -25 6
-25 15 0 10 -10 15 -34 15 -21 0 -36 -6 -40 -15 -3 -8 -15 -15 -27 -15 -16 0
-19 4 -14 18 4 9 20 52 37 95 31 81 50 95 66 50z m490 -9 c52 -59 13 -154 -63
-154 -49 0 -74 15 -90 54 -42 99 82 180 153 100z m-1008 -44 l0 -70 30 0 c23
0 30 -4 30 -20 0 -17 -7 -20 -50 -20 l-50 0 0 90 c0 83 1 90 20 90 18 0 20 -7
20 -70z m390 2 c0 -84 -16 -112 -66 -112 -22 0 -37 6 -41 15 -7 21 1 28 34 29
26 1 28 4 31 48 3 42 1 47 -20 50 -12 2 -24 11 -26 21 -3 14 4 17 42 17 l46 0
0 -68z m412 38 c26 -27 30 -36 25 -68 -9 -56 -45 -82 -113 -82 l-54 0 0 90 0
90 56 0 c49 0 59 -4 86 -30z m-1159 -61 c15 -24 1 -49 -27 -49 -29 0 -44 33
-25 56 15 18 38 15 52 -7z m-3 -164 c20 -25 8 -50 -25 -50 -21 0 -31 5 -33 18
-4 21 14 47 33 47 7 0 18 -7 25 -15z m404 -7 c9 -12 16 -30 16 -40 0 -30 -37
-58 -75 -58 l-35 0 0 60 0 60 39 0 c30 0 44 -6 55 -22z m84 15 c-32 -5 -40
-42 -10 -44 16 -1 16 -2 0 -6 -11 -3 -18 -14 -18 -28 0 -18 6 -25 28 -28 22
-3 20 -4 -10 -6 l-38 -1 0 60 0 60 38 -1 c30 -2 32 -3 10 -6z m102 -1 c0 -5
-10 -8 -21 -8 -31 1 -35 -22 -6 -33 52 -20 37 -81 -17 -67 -14 3 -26 11 -26
17 0 6 7 6 20 -1 11 -6 25 -8 30 -5 18 11 11 32 -15 43 -23 11 -33 40 -18 55
9 10 53 9 53 -1z m68 1 c-36 -5 -40 -43 -5 -44 l22 0 -23 -10 c-30 -12 -25
-41 8 -50 23 -6 22 -7 -7 -8 l-33 -1 0 60 0 60 33 -1 c30 -2 30 -2 5 -6z m132
-34 c0 22 5 41 10 41 6 0 10 -27 10 -62 l-1 -63 -44 49 -44 49 -4 -49 c-3 -43
-4 -42 -5 16 l-1 65 39 -44 40 -44 0 42z m65 1 c10 -45 23 -45 36 0 7 22 16
40 22 40 5 0 6 -8 2 -17 -4 -10 -14 -37 -22 -61 -18 -50 -24 -47 -47 22 -19
58 -19 59 -7 51 5 -3 12 -19 16 -35z m191 11 c17 -33 -1 -79 -33 -87 -58 -15
-100 43 -68 93 22 33 84 30 101 -6z m72 -84 c25 -4 24 -4 -5 -6 l-33 -1 2 63
2 62 3 -57 c4 -53 6 -57 31 -61z m65 71 l15 -43 21 45 c13 27 19 35 16 19 -5
-30 -35 -103 -39 -98 -12 14 -44 119 -37 119 5 0 16 -19 24 -42z m125 35 c-36
-5 -40 -42 -5 -44 l22 -2 -22 -4 c-35 -7 -31 -50 5 -56 25 -4 25 -4 -5 -6
l-33 -1 0 60 0 60 33 -1 c30 -2 30 -2 5 -6z m134 -10 c40 -36 6 -103 -52 -103
l-30 0 0 60 0 60 32 0 c17 0 40 -7 50 -17z m142 -5 c21 -30 20 -54 -4 -78 -54
-54 -126 12 -90 81 15 28 74 26 94 -3z m103 6 c3 -9 1 -25 -6 -36 -10 -16 -9
-24 4 -44 8 -13 11 -24 6 -24 -5 0 -16 11 -25 25 -21 32 -34 32 -39 -2 -2 -16
-5 0 -6 35 l-1 62 30 0 c19 0 33 -6 37 -16z"/>
<path d="M660 500 c-11 -11 -20 -29 -20 -39 0 -41 59 -68 88 -39 17 17 15 64
-4 82 -21 21 -40 20 -64 -4z"/>
<path d="M1006 465 c-9 -23 -8 -25 9 -25 17 0 19 9 6 28 -7 11 -10 10 -15 -3z"/>
<path d="M1427 502 c-20 -22 -22 -63 -5 -80 7 -7 24 -12 40 -12 48 0 66 66 26
94 -29 21 -41 20 -61 -2z"/>
<path d="M1220 460 c0 -48 1 -50 28 -50 35 0 52 16 52 50 0 34 -17 50 -52 50
-27 0 -28 -2 -28 -50z"/>
<path d="M490 250 c0 -39 4 -50 16 -50 31 0 54 20 54 48 0 34 -16 52 -47 52
-21 0 -23 -4 -23 -50z"/>
<path d="M1122 288 c-26 -26 -3 -88 33 -88 18 0 45 28 45 46 0 45 -49 71 -78
42z"/>
<path d="M1530 250 c0 -39 4 -50 16 -50 31 0 54 20 54 48 0 34 -16 52 -47 52
-21 0 -23 -4 -23 -50z"/>
<path d="M1666 284 c-22 -21 -20 -47 4 -69 29 -26 70 -7 70 33 0 49 -42 69
-74 36z"/>
<path d="M1790 281 c0 -27 19 -36 37 -18 18 18 9 37 -18 37 -12 0 -19 -7 -19
-19z"/>
</g>
</svg>
